<svg xmlns="http://www.w3.org/2000/svg" width="16" height="16" viewBox="0 0 16 16">
  <g id="Account_Setting" data-name="Account Setting" transform="translate(-371 -423)">
    <path id="Path_30125" data-name="Path 30125" d="M88.857,383a2.857,2.857,0,1,0,2.857,2.857A2.857,2.857,0,0,0,88.857,383Zm0,4.571a1.714,1.714,0,1,1,1.714-1.714A1.716,1.716,0,0,1,88.857,387.571Z" transform="translate(290.143 43.429)" fill="#505f79"/>
    <path id="Path_30126" data-name="Path 30126" d="M85,377a8,8,0,1,0,8,8A8.009,8.009,0,0,0,85,377Zm-3.429,13.929v-.786a1.716,1.716,0,0,1,1.714-1.714h3.429a1.716,1.716,0,0,1,1.714,1.714v.786a6.8,6.8,0,0,1-6.857,0Zm8-.829a2.858,2.858,0,0,0-2.853-2.815H83.286a2.858,2.858,0,0,0-2.853,2.815,6.857,6.857,0,1,1,9.134,0Z" transform="translate(294 46)" fill="#505f79"/>
  </g>
</svg>
