<svg xmlns="http://www.w3.org/2000/svg" width="12" height="16" viewBox="0 0 12 16">
  <g id="Log_Out" data-name="Log Out" transform="translate(-492 -435)">
    <path id="Path_30130" data-name="Path 30130" d="M905.143,493H912a1.144,1.144,0,0,0,1.143-1.143v-1.714H912v1.714h-6.857V478.143H912v1.714h1.143v-1.714A1.144,1.144,0,0,0,912,477h-6.857A1.144,1.144,0,0,0,904,478.143v13.714A1.144,1.144,0,0,0,905.143,493Z" transform="translate(-412 -42)" fill="#505f79"/>
    <path id="Path_30131" data-name="Path 30131" d="M917.051,491.049,919.1,489h-6.763v-1.143H919.1l-2.049-2.049.808-.808,3.429,3.429-3.429,3.429Z" transform="translate(-417.287 -45.429)" fill="#505f79"/>
  </g>
</svg>
