<svg xmlns="http://www.w3.org/2000/svg" width="16" height="14.286" viewBox="0 0 16 14.286">
  <g id="Plan" transform="translate(-727 -429)">
    <rect id="Rectangle_1733" data-name="Rectangle 1733" width="1.5" height="1.5" transform="translate(738 436.643)" fill="#505f79"/>
    <path id="Path_30127" data-name="Path 30127" d="M391.857,180.857H378.143v-1.714h12.571V178H378.143A1.144,1.144,0,0,0,377,179.143v12a1.144,1.144,0,0,0,1.143,1.143h13.714A1.144,1.144,0,0,0,393,191.143V182A1.144,1.144,0,0,0,391.857,180.857Zm-13.714,10.286V182h13.714v1.714h-4.571a1.144,1.144,0,0,0-1.143,1.143v3.429a1.144,1.144,0,0,0,1.143,1.143h4.571v1.714Zm13.714-6.286v3.429h-4.571v-3.429Z" transform="translate(350 251)" fill="#505f79"/>
  </g>
</svg>
