<svg xmlns="http://www.w3.org/2000/svg" width="16" height="16" viewBox="0 0 16 16">
  <g id="Setting_Request" data-name="Setting Request" transform="translate(-7857 -2726)">
    <rect id="Rectangle_1893" data-name="Rectangle 1893" width="16" height="16" rx="2" transform="translate(7857 2726)" fill="#ebecf0"/>
    <g id="Group_15287" data-name="Group 15287" transform="translate(-15.427 9)">
      <path id="Path_30202" data-name="Path 30202" d="M1436.658,1629.216c.005-.072.011-.144.011-.216s0-.146-.008-.219l.566-.482a.559.559,0,0,0,.122-.715l-.7-1.168a.593.593,0,0,0-.51-.286.608.608,0,0,0-.189.03l-.717.235a3.331,3.331,0,0,0-.387-.217l-.148-.719a.585.585,0,0,0-.578-.459h-1.391a.585.585,0,0,0-.578.459l-.148.719a3.285,3.285,0,0,0-.391.215l-.713-.234a.6.6,0,0,0-.189-.03.593.593,0,0,0-.51.286l-.7,1.168a.559.559,0,0,0,.121.715l.569.485c-.005.072-.011.144-.011.216s0,.146.008.219l-.566.482a.559.559,0,0,0-.121.715l.7,1.168a.593.593,0,0,0,.51.286.606.606,0,0,0,.189-.03l.717-.235a3.249,3.249,0,0,0,.387.217l.148.719a.585.585,0,0,0,.578.459h1.391a.585.585,0,0,0,.578-.459l.148-.719a3.27,3.27,0,0,0,.391-.216l.713.234a.608.608,0,0,0,.189.03.593.593,0,0,0,.51-.286l.7-1.168a.559.559,0,0,0-.122-.715Zm-.516,2.082-1.01-.331a2.683,2.683,0,0,1-.8.447l-.209,1.015h-1.391l-.21-1.015a2.7,2.7,0,0,1-.794-.449l-1.016.333-.7-1.168.8-.684a2.471,2.471,0,0,1,0-.894l-.8-.683.7-1.168,1.01.331a2.685,2.685,0,0,1,.8-.447l.21-1.015h1.391l.209,1.015a2.7,2.7,0,0,1,.794.449l1.016-.333.7,1.168-.8.684a2.468,2.468,0,0,1,0,.894l.8.682Z" transform="translate(6447 1096)" fill="#505f79"/>
      <path id="Path_30203" data-name="Path 30203" d="M1438.768,1636.536a1.768,1.768,0,1,1,1.768-1.768A1.749,1.749,0,0,1,1438.768,1636.536Zm0-2.947a1.179,1.179,0,1,0,1.179,1.179A1.153,1.153,0,0,0,1438.768,1633.589Z" transform="translate(6441.659 1090.232)" fill="#505f79"/>
    </g>
  </g>
</svg>
