<svg xmlns="http://www.w3.org/2000/svg" xmlns:xlink="http://www.w3.org/1999/xlink" width="356" height="138" viewBox="0 0 356 138">
  <defs>
    <filter id="Rectangle_1727" x="3" y="2" width="350" height="132" filterUnits="userSpaceOnUse">
      <feOffset dy="1" input="SourceAlpha"/>
      <feGaussianBlur stdDeviation="2" result="blur"/>
      <feFlood flood-color="#0450c1" flood-opacity="0.129"/>
      <feComposite operator="in" in2="blur"/>
      <feComposite in="SourceGraphic"/>
    </filter>
    <filter id="Rectangle_1712" x="0" y="0" width="356" height="138" filterUnits="userSpaceOnUse">
      <feOffset dy="2" input="SourceAlpha"/>
      <feGaussianBlur stdDeviation="3" result="blur-2"/>
      <feFlood flood-color="#0450c1" flood-opacity="0.161"/>
      <feComposite operator="in" in2="blur-2"/>
      <feComposite in="SourceGraphic"/>
    </filter>
    <clipPath id="clip-path">
      <g transform="matrix(1, 0, 0, 1, 0, 0)" filter="url(#Rectangle_1727)">
        <rect id="Rectangle_1727-2" data-name="Rectangle 1727" width="338" height="120" rx="4" transform="translate(691 144)" fill="#eff5ff"/>
      </g>
    </clipPath>
    <filter id="Path_30122" x="245.391" y="25.391" width="87.044" height="87.044" filterUnits="userSpaceOnUse">
      <feOffset dy="2" input="SourceAlpha"/>
      <feGaussianBlur stdDeviation="2" result="blur-3"/>
      <feFlood flood-color="#0450c1" flood-opacity="0.102"/>
      <feComposite operator="in" in2="blur-3"/>
      <feComposite in="SourceGraphic"/>
    </filter>
    <filter id="Rectangle_1723" x="269.571" y="32.86" width="45.274" height="55.208" filterUnits="userSpaceOnUse">
      <feOffset dx="-2" dy="3" input="SourceAlpha"/>
      <feGaussianBlur stdDeviation="1" result="blur-4"/>
      <feFlood flood-color="#0450c1" flood-opacity="0.161"/>
      <feComposite operator="in" in2="blur-4"/>
      <feComposite in="SourceGraphic"/>
    </filter>
    <linearGradient id="linear-gradient" x1="0.47" y1="1.416" x2="0.512" y2="0.148" gradientUnits="objectBoundingBox">
      <stop offset="0.045" stop-color="#62b0ff"/>
      <stop offset="0.273" stop-color="#6cb8ff"/>
      <stop offset="0.67" stop-color="#89ceff"/>
      <stop offset="1" stop-color="#a6e5ff"/>
    </linearGradient>
    <linearGradient id="linear-gradient-2" x1="0.377" y1="0.878" x2="0.637" y2="0.079" gradientUnits="objectBoundingBox">
      <stop offset="0.045" stop-color="#f79501"/>
      <stop offset="0.377" stop-color="#f99f09"/>
      <stop offset="0.953" stop-color="#febc1e"/>
      <stop offset="1" stop-color="#ffbf21"/>
    </linearGradient>
  </defs>
  <g id="Use_Templates" data-name="Use Templates" transform="translate(-682 -161)">
    <g transform="matrix(1, 0, 0, 1, 682, 161)" filter="url(#Rectangle_1712)">
      <rect id="Rectangle_1712-2" data-name="Rectangle 1712" width="338" height="120" rx="4" transform="translate(9 7)" fill="#fcfdff"/>
    </g>
    <g id="Group_697" data-name="Group 697" transform="translate(0 24)" opacity="0.24" clip-path="url(#clip-path)">
      <path id="Path_30123" data-name="Path 30123" d="M802.179,130.323,680.531,281.139H901.774l93.193-150.815Z" transform="translate(29 -14)" fill="#d1e5ff"/>
      <path id="Path_30124" data-name="Path 30124" d="M802.179,130.323,680.531,281.139H901.774l93.193-150.815Z" transform="translate(-151.215 -212.59) rotate(8)" fill="#dcebff"/>
    </g>
    <g id="Group_15110" data-name="Group 15110" transform="translate(-4 18)">
      <text id="Sử_dụng_mẫu_văn_bản" data-name="Sử dụng mẫu văn bản" transform="translate(711 184)" fill="#253858" font-size="14" font-family="HelveticaNeue-Medium, Helvetica Neue" font-weight="500"><tspan x="0" y="13">Sử dụng mẫu văn bản</tspan></text>
      <text id="Sử_dung_các_mẫu_văn_bản_có_sẵn_rút_ngắn_thời_gian_soạn_thảo_nhanh_chóng_-_tiện_lợi" data-name="Sử dung các mẫu văn bản có sẵn, rút ngắn thời gian soạn thảo, nhanh chóng - tiện lợi" transform="translate(711 208)" fill="#7a869a" font-size="10" font-family="HelveticaNeue, Helvetica Neue"><tspan x="0" y="10">Sử dung các mẫu văn bản có sẵn, rút ngắn </tspan><tspan x="0" y="24">thời gian soạn thảo, nhanh chóng - tiện lợi</tspan></text>
    </g>
    <g id="Group_15108" data-name="Group 15108" transform="translate(799.635 5.043)">
      <g id="Group_15105" data-name="Group 15105" transform="translate(133.756 185.348)">
        <g transform="matrix(1, 0, 0, 1, -251.39, -29.39)" filter="url(#Path_30122)">
          <path id="Path_30122-2" data-name="Path 30122" d="M37.522,0A37.522,37.522,0,1,1,0,37.522,37.522,37.522,0,0,1,37.522,0Z" transform="translate(251.39 29.39)" fill="#fafbfc"/>
        </g>
        <circle id="Ellipse_71" data-name="Ellipse 71" cx="31.297" cy="31.297" r="31.297" transform="translate(6.226 6.226)" fill="#81c8ff"/>
        <rect id="Rectangle_1720" data-name="Rectangle 1720" width="32.198" height="8.713" transform="translate(17.24 57.931)" fill="#001c84" opacity="0.65"/>
      </g>
      <g id="Group_15107" data-name="Group 15107" transform="translate(134.553 188.817)">
        <path id="Path_30120" data-name="Path 30120" d="M192.052,260.973H153.3a1.38,1.38,0,0,1-1.3-1.11l-5.924-33.82a.907.907,0,0,1,.915-1.11h38.748a1.38,1.38,0,0,1,1.3,1.11l5.925,33.82A.907.907,0,0,1,192.052,260.973Z" transform="translate(-138.884 -202.755)" fill="#294587"/>
        <rect id="Rectangle_1721" data-name="Rectangle 1721" width="36.038" height="18.952" transform="translate(23.813 1.686)" fill="#2c73fe" opacity="0.37"/>
        <g id="Group_15106" data-name="Group 15106" transform="translate(14.819)">
          <rect id="Rectangle_1726" data-name="Rectangle 1726" width="39.274" height="49.208" rx="1.63" transform="translate(3.564 5)" fill="#fff"/>
          <g id="Group_15109" data-name="Group 15109">
            <g transform="matrix(1, 0, 0, 1, -267.01, -32.86)" filter="url(#Rectangle_1723)">
              <rect id="Rectangle_1723-2" data-name="Rectangle 1723" width="39.274" height="49.208" rx="1.63" transform="translate(274.57 32.86)" fill="#fff"/>
            </g>
            <rect id="Rectangle_1724" data-name="Rectangle 1724" width="18.045" height="2.254" transform="translate(13.651 5.016)" fill="#2c73fe" opacity="0.57"/>
            <rect id="Rectangle_1725" data-name="Rectangle 1725" width="21.915" height="2.254" transform="translate(13.651 9.825)" fill="#2c73fe" opacity="0.57"/>
          </g>
        </g>
        <path id="Path_30121" data-name="Path 30121" d="M201.857,264.363H156.4c-.654,0-.937-.53-.632-1.184l12.793-27.434a2.134,2.134,0,0,1,1.736-1.184h45.454c.654,0,.937.53.632,1.184l-12.793,27.434A2.135,2.135,0,0,1,201.857,264.363Z" transform="translate(-142.261 -206.145)" fill="url(#linear-gradient)"/>
        <circle id="Ellipse_72" data-name="Ellipse 72" cx="9.645" cy="9.645" r="9.645" transform="translate(3 40.091)" fill="url(#linear-gradient-2)"/>
        <path id="Path_30067" data-name="Path 30067" d="M312.582,393.587,309,390l1.139-1.14,2.442,2.443L317.89,386l1.143,1.136Z" transform="translate(-301.319 -340.27)" fill="#fff"/>
      </g>
    </g>
  </g>
</svg>
